<svg width="70" height="407" viewBox="0 0 70 407" fill="none" xmlns="http://www.w3.org/2000/svg">
<path d="M52.105 0.545998C53.873 0.181999 55.147 0.0259997 55.927 0.077999C56.707 0.129998 57.877 0.415998 59.437 0.935997C61.101 1.612 62.115 2.106 62.479 2.418C62.843 2.73 63.077 3.328 63.181 4.212C63.285 4.732 63.207 5.122 62.947 5.382C62.687 5.59 62.037 5.876 60.997 6.24C59.541 6.656 57.695 6.942 55.459 7.098C53.223 7.202 52.001 7.072 51.793 6.708C51.481 6.188 49.167 6.136 44.851 6.552C40.587 6.916 37.415 7.436 35.335 8.112C34.087 8.528 32.787 9.152 31.435 9.984C30.135 10.816 29.329 11.232 29.017 11.232C28.757 11.232 28.133 11.492 27.145 12.012C25.741 12.74 23.739 13.572 21.139 14.508C18.539 15.444 16.979 15.912 16.459 15.912C15.783 15.912 14.041 15.054 11.233 13.338C8.42498 11.622 7.02098 10.582 7.02098 10.218C7.02098 9.802 7.43698 9.516 8.26898 9.36C9.10098 9.152 10.011 9.126 10.999 9.282C13.027 9.646 17.863 8.606 25.507 6.162C27.951 5.33 30.785 4.628 34.009 4.056C41.393 2.704 47.425 1.534 52.105 0.545998ZM35.803 46.388C35.491 45.764 35.647 45.452 36.271 45.452C36.947 45.452 38.221 46.024 40.093 47.168C42.017 48.26 43.057 49.04 43.213 49.508C43.369 49.924 44.253 50.548 45.865 51.38C47.529 52.16 48.673 52.524 49.297 52.472C49.973 52.472 50.649 52.706 51.325 53.174C52.053 53.59 52.417 54.006 52.417 54.422C52.417 55.046 51.533 55.774 49.765 56.606C48.049 57.438 47.191 57.984 47.191 58.244C47.191 58.504 46.489 59.388 45.085 60.896C44.149 61.936 43.525 62.794 43.213 63.47C42.953 64.146 42.719 65.498 42.511 67.526C42.199 70.386 42.043 71.868 42.043 71.972C42.095 72.076 43.083 71.764 45.007 71.036C46.983 70.256 49.141 69.996 51.481 70.256C53.561 70.412 54.991 70.802 55.771 71.426C56.603 72.05 56.811 72.934 56.395 74.078C55.979 75.118 55.693 76.626 55.537 78.602C55.381 79.954 55.069 81.202 54.601 82.346C54.185 83.49 53.379 85.102 52.183 87.182C51.767 87.91 51.117 88.768 50.233 89.756C49.401 90.692 48.335 92.07 47.035 93.89C45.735 95.658 44.825 97.062 44.305 98.102C43.265 100.026 40.743 102.574 36.739 105.746C32.735 108.918 28.731 111.492 24.727 113.468C21.659 114.924 20.047 115.782 19.891 116.042C19.787 116.198 18.773 116.64 16.849 117.368C14.925 118.148 13.833 118.538 13.573 118.538C13.417 118.538 13.651 118.174 14.275 117.446C14.951 116.77 15.445 116.432 15.757 116.432C16.173 116.432 18.305 115.158 22.153 112.61C26.001 110.01 28.705 108.034 30.265 106.682C34.373 103.198 37.311 100.312 39.079 98.024C40.899 95.736 42.953 92.304 45.241 87.728C46.749 84.712 47.711 82.606 48.127 81.41C48.595 80.162 48.881 78.888 48.985 77.588L49.063 74.546L46.645 74.702C45.033 74.806 43.811 75.144 42.979 75.716C42.407 76.08 42.069 76.418 41.965 76.73C41.913 76.99 41.939 77.484 42.043 78.212C42.355 79.564 42.433 81.488 42.277 83.984C42.173 86.428 41.913 87.936 41.497 88.508C41.029 89.288 40.015 89.756 38.455 89.912C36.947 90.068 35.673 89.808 34.633 89.132C33.645 88.612 32.787 88.456 32.059 88.664C31.383 88.872 30.551 89.496 29.563 90.536C28.835 91.264 27.769 92.018 26.365 92.798C25.013 93.578 24.051 93.968 23.479 93.968C23.011 93.968 22.569 93.734 22.153 93.266C21.737 92.746 21.399 92.096 21.139 91.316C20.723 89.444 20.541 88.196 20.593 87.572C20.645 86.948 21.035 86.168 21.763 85.232C22.387 84.452 22.907 83.958 23.323 83.75C23.791 83.49 24.493 83.36 25.429 83.36C26.469 83.36 27.301 83.178 27.925 82.814C28.549 82.45 29.667 81.514 31.279 80.006C32.943 78.446 33.957 77.38 34.321 76.808C34.685 76.236 34.867 75.43 34.867 74.39C34.867 73.298 34.789 72.674 34.633 72.518C34.529 72.31 34.217 72.284 33.697 72.44C32.865 72.7 32.085 73.064 31.357 73.532C29.173 75.092 27.353 74.234 25.897 70.958C25.429 69.814 25.221 68.722 25.273 67.682C25.325 66.642 25.663 65.784 26.287 65.108C27.171 64.172 27.691 62.794 27.847 60.974C28.055 59.154 27.769 57.958 26.989 57.386C26.573 57.074 26.365 56.866 26.365 56.762C26.417 56.658 26.729 56.476 27.301 56.216C28.237 55.904 29.511 56.034 31.123 56.606L33.541 57.464L33.463 60.272C33.359 62.144 33.099 63.34 32.683 63.86C32.059 64.64 32.033 65.03 32.605 65.03C32.969 65.03 33.489 64.796 34.165 64.328C35.101 63.6 35.751 62.534 36.115 61.13C36.375 59.934 36.453 57.36 36.349 53.408C36.245 49.456 36.063 47.116 35.803 46.388ZM45.241 54.344C44.825 53.252 44.357 53.044 43.837 53.72C43.525 54.084 43.369 54.656 43.369 55.436V57.386L44.461 56.294C45.241 55.618 45.501 54.968 45.241 54.344ZM52.105 148.546C53.873 148.182 55.147 148.026 55.927 148.078C56.707 148.13 57.877 148.416 59.437 148.936C61.101 149.612 62.115 150.106 62.479 150.418C62.843 150.73 63.077 151.328 63.181 152.212C63.285 152.732 63.207 153.122 62.947 153.382C62.687 153.59 62.037 153.876 60.997 154.24C59.541 154.656 57.695 154.942 55.459 155.098C53.223 155.202 52.001 155.072 51.793 154.708C51.481 154.188 49.167 154.136 44.851 154.552C40.587 154.916 37.415 155.436 35.335 156.112C34.087 156.528 32.787 157.152 31.435 157.984C30.135 158.816 29.329 159.232 29.017 159.232C28.757 159.232 28.133 159.492 27.145 160.012C25.741 160.74 23.739 161.572 21.139 162.508C18.539 163.444 16.979 163.912 16.459 163.912C15.783 163.912 14.041 163.054 11.233 161.338C8.42498 159.622 7.02098 158.582 7.02098 158.218C7.02098 157.802 7.43698 157.516 8.26898 157.36C9.10098 157.152 10.011 157.126 10.999 157.282C13.027 157.646 17.863 156.606 25.507 154.162C27.951 153.33 30.785 152.628 34.009 152.056C41.393 150.704 47.425 149.534 52.105 148.546ZM32.605 222.156C32.657 222.208 32.787 222.312 32.995 222.468C33.827 222.988 34.373 223.352 34.633 223.56C34.945 223.768 35.283 224.158 35.647 224.73C36.063 225.25 36.297 225.64 36.349 225.9C36.401 226.108 36.453 226.706 36.505 227.694C36.609 228.682 36.609 229.514 36.505 230.19C36.453 230.866 36.375 232.14 36.271 234.012C36.271 234.376 36.271 234.662 36.271 234.87C35.803 240.85 35.595 245.894 35.647 250.002C35.699 253.642 35.595 256.06 35.335 257.256C35.127 258.452 34.607 259.154 33.775 259.362C32.059 259.778 30.941 259.284 30.421 257.88C29.901 256.476 29.667 253.304 29.719 248.364C29.771 243.216 29.979 238.224 30.343 233.388C30.655 230.112 30.785 227.98 30.733 226.992C30.681 226.004 30.473 225.042 30.109 224.106C29.433 222.858 29.199 221.974 29.407 221.454C29.615 220.934 29.849 220.7 30.109 220.752C30.421 220.804 31.253 221.272 32.605 222.156ZM32.683 201.798C32.683 200.862 32.813 200.42 33.073 200.472C33.385 200.472 34.061 200.94 35.101 201.876C36.245 202.968 36.687 203.904 36.427 204.684C36.167 205.776 35.725 207.024 35.101 208.428C34.529 209.78 34.061 210.612 33.697 210.924C32.917 211.704 32.995 212.224 33.931 212.484C34.659 212.588 36.063 212.64 38.143 212.64C41.627 212.64 44.539 212.9 46.879 213.42C49.219 213.94 51.065 214.2 52.417 214.2C53.613 214.2 55.407 214.642 57.799 215.526C60.243 216.41 61.777 217.19 62.401 217.866C63.181 218.698 63.701 219.556 63.961 220.44C64.221 221.272 64.143 221.974 63.727 222.546C63.363 223.014 63.025 223.248 62.713 223.248C62.401 223.248 61.543 222.988 60.139 222.468C56.551 221.012 53.743 220.154 51.715 219.894C50.415 219.79 49.505 219.582 48.985 219.27C48.465 218.906 46.047 218.724 41.731 218.724C38.663 218.724 36.713 218.672 35.881 218.568C35.049 218.412 34.113 217.97 33.073 217.242C31.981 216.462 31.279 216.046 30.967 215.994C30.707 215.942 30.291 216.176 29.719 216.696C28.939 217.372 28.159 218.334 27.379 219.582C26.547 220.83 24.753 222.858 21.997 225.666C19.241 228.422 17.135 230.294 15.679 231.282C14.275 232.218 12.429 233.102 10.141 233.934C7.85298 234.766 6.52698 235 6.16298 234.636C5.85098 234.272 6.29298 233.726 7.48898 232.998C10.401 231.23 15.289 226.082 22.153 217.554C29.069 208.974 32.579 203.722 32.683 201.798ZM55.147 288.824C59.931 286.848 63.675 286.51 66.379 287.81C67.835 288.59 68.745 289.526 69.109 290.618C69.473 291.71 69.395 293.322 68.875 295.454C68.251 297.794 67.835 299.666 67.627 301.07C67.263 303.41 66.015 306.01 63.883 308.87C61.803 311.73 60.087 313.16 58.735 313.16C58.059 313.16 57.643 313.29 57.487 313.55C57.383 313.81 57.227 314.59 57.019 315.89C56.863 317.762 56.681 320.752 56.473 324.86C56.317 328.916 56.057 331.62 55.693 332.972C55.329 334.116 54.627 335.156 53.587 336.092C52.547 337.08 51.533 337.574 50.545 337.574C48.829 337.574 48.595 336.82 49.843 335.312C50.623 334.376 51.065 333.258 51.169 331.958C51.481 329.41 51.715 325.302 51.871 319.634C52.027 313.966 52.053 308.896 51.949 304.424C51.949 302.76 52.001 300.784 52.105 298.496C52.157 296.988 52.105 295.922 51.949 295.298C51.793 294.674 51.455 293.998 50.935 293.27C50.103 292.178 49.843 291.476 50.155 291.164C50.467 290.852 52.131 290.072 55.147 288.824ZM63.103 290.618C62.583 290.306 62.219 290.15 62.011 290.15C61.699 290.15 61.101 290.488 60.217 291.164C59.385 291.788 58.631 292.542 57.955 293.426L56.317 295.298L57.409 297.092C57.825 297.872 58.085 298.626 58.189 299.354C58.293 300.03 58.293 301.278 58.189 303.098C58.085 306.01 58.345 307.518 58.969 307.622C59.645 307.726 60.711 306.322 62.167 303.41C62.843 301.954 63.311 299.562 63.571 296.234C63.883 292.854 63.727 290.982 63.103 290.618ZM33.775 270.884C33.775 270.052 34.685 270.156 36.505 271.196C37.285 271.716 38.013 272.314 38.689 272.99C39.417 273.614 39.833 274.16 39.937 274.628C40.093 275.044 40.067 275.876 39.859 277.124L39.547 279.932L41.419 280.322C42.719 280.53 43.681 280.998 44.305 281.726C45.033 282.454 45.137 283.13 44.617 283.754C44.149 284.326 43.213 284.664 41.809 284.768L39.391 285.08L38.611 288.122C37.987 290.722 37.987 291.918 38.611 291.71C38.819 291.71 39.027 291.58 39.235 291.32C39.859 290.644 41.237 290.462 43.369 290.774C45.553 291.034 46.645 291.476 46.645 292.1C46.645 292.36 46.177 293.01 45.241 294.05C44.305 295.038 43.759 296.234 43.603 297.638C43.395 298.73 43.369 299.38 43.525 299.588C43.681 299.744 44.149 299.614 44.929 299.198C45.501 298.938 45.969 298.912 46.333 299.12C46.801 299.38 47.659 300.394 48.907 302.162C50.207 303.93 50.857 304.944 50.857 305.204C50.857 305.776 50.493 306.348 49.765 306.92C49.089 307.492 48.439 307.778 47.815 307.778C46.983 307.778 45.631 308.636 43.759 310.352C41.939 312.016 39.911 313.68 37.675 315.344C35.439 317.008 34.087 317.84 33.619 317.84C32.995 317.84 32.423 317.476 31.903 316.748C31.383 315.968 31.019 315.006 30.811 313.862C30.655 312.666 30.759 311.652 31.123 310.82C31.487 309.988 32.657 307.986 34.633 304.814C36.401 302.11 37.129 300.316 36.817 299.432C36.817 299.276 36.765 299.198 36.661 299.198C36.297 299.198 35.491 299.848 34.243 301.148C33.047 302.448 31.305 303.904 29.017 305.516L25.663 308.012L26.053 314.954C26.261 318.698 26.235 321.272 25.975 322.676C25.767 324.028 25.169 324.86 24.181 325.172C23.401 325.38 22.387 325.042 21.139 324.158C19.943 323.274 18.981 322.156 18.253 320.804C17.473 319.4 16.303 317.84 14.743 316.124C13.235 314.356 12.455 313.342 12.403 313.082C12.351 312.77 12.273 312.432 12.169 312.068C12.117 311.704 12.065 311.34 12.013 310.976C11.961 310.612 11.675 310.43 11.155 310.43C10.635 310.43 10.115 311.366 9.59498 313.238C8.50298 316.826 6.99498 319.218 5.07098 320.414C4.13498 320.986 3.27698 321.636 2.49698 322.364C1.50898 323.196 0.962977 323.404 0.858977 322.988C0.806977 322.624 1.14498 322.026 1.87298 321.194C3.48498 319.426 4.68098 317.372 5.46098 315.032C6.29298 312.692 7.07298 309 7.80098 303.956C8.52898 299.172 8.94498 295.948 9.04898 294.284C9.20498 292.62 9.28298 290.02 9.28298 286.484C9.28298 281.804 9.46498 279.36 9.82898 279.152C10.193 278.892 10.739 279.1 11.467 279.776C11.935 280.244 12.351 280.374 12.715 280.166C13.131 279.958 14.093 279.126 15.601 277.67C17.161 276.11 18.175 275.226 18.643 275.018C19.163 274.758 20.151 274.654 21.607 274.706L24.493 274.94L24.571 277.904C24.623 279.88 24.727 284.3 24.883 291.164C25.039 297.976 25.195 301.486 25.351 301.694C25.611 301.902 26.183 301.72 27.067 301.148C28.003 300.576 28.939 299.9 29.875 299.12C30.395 298.652 30.681 298.314 30.733 298.106C30.785 297.846 30.681 297.56 30.421 297.248C30.213 296.884 30.161 296.598 30.265 296.39C30.369 296.13 30.681 295.766 31.201 295.298C32.085 294.57 32.709 293.816 33.073 293.036C33.489 292.204 33.723 291.164 33.775 289.916C33.827 288.408 33.801 287.55 33.697 287.342C33.593 287.134 33.151 287.186 32.371 287.498C30.395 288.278 28.835 287.732 27.691 285.86C27.275 285.08 27.067 284.612 27.067 284.456C27.067 284.248 27.301 284.092 27.769 283.988C28.393 283.78 29.823 283.156 32.059 282.116L35.413 280.556V276.5C35.413 273.9 35.127 272.392 34.555 271.976C34.035 271.56 33.775 271.196 33.775 270.884ZM20.359 283.676C20.359 281.44 20.229 279.906 19.969 279.074C19.813 278.398 19.527 278.242 19.111 278.606C18.747 278.814 17.889 279.672 16.537 281.18C15.081 282.896 14.171 284.196 13.807 285.08C13.495 285.964 13.495 287.056 13.807 288.356C13.963 288.876 14.223 289.214 14.587 289.37C14.951 289.526 15.731 289.604 16.927 289.604C18.591 289.604 19.579 289.318 19.891 288.746C20.255 288.174 20.411 286.484 20.359 283.676ZM15.913 293.27C15.237 293.27 14.743 293.608 14.431 294.284C14.171 294.96 14.041 296.156 14.041 297.872V300.056L15.679 297.482C16.667 295.766 17.161 294.648 17.161 294.128C17.161 293.556 16.745 293.27 15.913 293.27ZM20.437 298.028C20.437 296.624 19.631 296.598 18.019 297.95C17.291 298.574 16.511 299.406 15.679 300.446C14.171 302.63 13.781 303.8 14.509 303.956C14.977 303.956 16.069 303.098 17.785 301.382C19.553 299.666 20.437 298.548 20.437 298.028ZM20.437 310.976C20.385 308.272 20.229 306.712 19.969 306.296C19.917 306.192 19.761 306.192 19.501 306.296C19.241 306.4 18.851 306.634 18.331 306.998C17.863 307.31 17.343 307.778 16.771 308.402L13.963 310.976L15.055 312.77C15.627 313.758 16.355 314.59 17.239 315.266C18.175 315.942 18.981 316.28 19.657 316.28C20.125 316.28 20.385 316.072 20.437 315.656C20.489 315.188 20.489 313.628 20.437 310.976ZM47.347 351.904C48.335 350.968 49.063 350.422 49.531 350.266C49.999 350.11 50.805 350.11 51.949 350.266C53.145 350.37 54.471 350.76 55.927 351.436C57.383 352.112 58.267 352.684 58.579 353.152C58.839 353.516 58.787 354.01 58.423 354.634C58.059 355.258 57.773 358.066 57.565 363.058C57.409 366.802 57.201 369.61 56.941 371.482C56.733 373.302 56.291 375.642 55.615 378.502C55.043 381.31 54.549 383.13 54.133 383.962C53.769 384.794 53.119 385.47 52.183 385.99C51.455 386.406 50.831 386.64 50.311 386.692C49.791 386.692 48.907 386.536 47.659 386.224C44.903 385.652 43.265 385.444 42.745 385.6C42.225 385.704 41.887 386.562 41.731 388.174C41.471 389.994 41.211 391.138 40.951 391.606C40.743 392.022 40.457 394.154 40.093 398.002C39.677 403.358 38.923 406.218 37.831 406.582C37.363 406.686 36.713 406.478 35.881 405.958C35.569 405.802 35.413 405.594 35.413 405.334C35.413 405.074 35.569 404.632 35.881 404.008C36.297 403.124 36.557 402.058 36.661 400.81C36.817 399.562 36.999 396.13 37.207 390.514C37.467 384.534 37.389 381.414 36.973 381.154C36.557 380.894 36.505 379.048 36.817 375.616C37.025 372.184 37.129 368.934 37.129 365.866C37.181 362.746 37.077 361.056 36.817 360.796C36.557 360.536 36.141 360.692 35.569 361.264C34.997 361.784 34.685 362.304 34.633 362.824C34.581 363.188 33.801 364.878 32.293 367.894C30.785 370.91 29.875 372.652 29.563 373.12C29.303 373.484 28.809 374.654 28.081 376.63C27.405 378.606 26.625 380.296 25.741 381.7C24.909 383.052 23.505 384.794 21.529 386.926C20.021 388.538 18.851 389.604 18.019 390.124C17.239 390.592 16.537 390.618 15.913 390.202C15.289 389.786 14.613 388.85 13.885 387.394C12.897 385.418 12.507 384.144 12.715 383.572C12.923 383 13.313 381.232 13.885 378.268C14.249 376.188 14.431 374.862 14.431 374.29C14.431 373.666 14.197 372.886 13.729 371.95L12.715 370.078L14.197 368.986C14.769 368.57 15.133 368.154 15.289 367.738C15.497 367.322 15.601 366.62 15.601 365.632C15.601 364.072 15.419 362.928 15.055 362.2C14.483 361.056 14.639 360.51 15.523 360.562C16.667 360.718 17.993 361.524 19.501 362.98C20.333 363.916 20.879 364.436 21.139 364.54C21.451 364.644 21.789 364.488 22.153 364.072C22.725 363.552 23.063 363.11 23.167 362.746C23.271 362.486 24.415 362.46 26.599 362.668C28.783 362.876 30.473 363.162 31.669 363.526C32.085 363.63 32.709 363.136 33.541 362.044C34.373 360.9 34.789 359.99 34.789 359.314C34.789 358.794 34.971 358.534 35.335 358.534C35.751 358.534 38.351 357.312 43.135 354.868C44.539 354.14 45.943 353.152 47.347 351.904ZM50.077 357.208C49.869 356.844 49.687 356.61 49.531 356.506C49.375 356.402 49.115 356.454 48.751 356.662C48.387 356.818 47.919 357.13 47.347 357.598C46.827 358.014 46.151 358.638 45.319 359.47C43.759 361.03 42.875 362.018 42.667 362.434C42.459 362.85 42.537 363.5 42.901 364.384C43.317 365.424 43.395 367.582 43.135 370.858C42.771 374.966 42.615 377.358 42.667 378.034C42.771 378.71 43.187 379.074 43.915 379.126C44.799 379.282 45.813 378.996 46.957 378.268C47.633 377.852 48.101 377.41 48.361 376.942C48.673 376.474 48.881 375.72 48.985 374.68C49.193 372.912 49.453 370.832 49.765 368.44C50.077 366.412 50.259 364.202 50.311 361.81C50.363 359.366 50.285 357.832 50.077 357.208ZM28.861 368.674C28.757 368.414 28.237 368.518 27.301 368.986C26.833 369.246 25.559 369.948 23.479 371.092L19.891 373.042L19.033 377.02C18.513 379.672 18.331 381.102 18.487 381.31C18.747 381.518 19.475 381.128 20.671 380.14C21.919 379.1 22.985 377.956 23.869 376.708C25.117 375.044 25.897 374.03 26.209 373.666C26.521 373.302 27.067 372.47 27.847 371.17C28.679 369.87 29.017 369.038 28.861 368.674ZM17.083 351.592C19.215 350.344 20.593 349.642 21.217 349.486C21.893 349.278 22.907 349.278 24.259 349.486C26.079 349.746 27.093 349.98 27.301 350.188C27.509 350.396 27.275 350.942 26.599 351.826C25.923 352.71 25.403 353.152 25.039 353.152C24.519 353.152 24.051 353.412 23.635 353.932C23.063 354.608 21.841 355.362 19.969 356.194C18.097 357.026 16.641 357.442 15.601 357.442C14.353 357.442 13.313 357.078 12.481 356.35C11.285 355.05 11.129 354.348 12.013 354.244C12.429 354.244 14.119 353.36 17.083 351.592Z" fill="white"/>
</svg>
